<?xml version="1.0" encoding="utf-8"?>
<!-- Generator: Adobe Illustrator 24.1.1, SVG Export Plug-In . SVG Version: 6.00 Build 0)  -->
<svg version="1.1" id="Calque_1" xmlns="http://www.w3.org/2000/svg" xmlns:xlink="http://www.w3.org/1999/xlink" x="0px" y="0px"
	 viewBox="0 0 195 135" style="enable-background:new 0 0 195 135;" xml:space="preserve">
<style type="text/css">
	.st0{fill:url(#SVGID_1_);}
	.st1{opacity:0.275;fill:url(#SVGID_2_);enable-background:new    ;}
	.st2{fill-rule:evenodd;clip-rule:evenodd;fill:#007F00;stroke:#00287B;stroke-width:0.312;}
	
		.st3{opacity:0.597;fill-rule:evenodd;clip-rule:evenodd;fill:url(#SVGID_3_);stroke:url(#SVGID_4_);stroke-width:1.25;stroke-linejoin:round;stroke-opacity:0.594;enable-background:new    ;}
	.st4{fill-rule:evenodd;clip-rule:evenodd;fill:url(#SVGID_5_);}
	.st5{fill:#FFFFFF;stroke:#FFFFFF;stroke-width:0.755;}
	.st6{opacity:0.346;fill:url(#SVGID_6_);enable-background:new    ;}
	.st7{opacity:0.408;fill-rule:evenodd;clip-rule:evenodd;fill:url(#SVGID_7_);enable-background:new    ;}
	.st8{opacity:0.204;fill-rule:evenodd;clip-rule:evenodd;fill:#FFFFFF;enable-background:new    ;}
	.st9{opacity:0.3;fill:#000409;fill-opacity:0.467;enable-background:new    ;}
	.st10{opacity:0.4;fill-rule:evenodd;clip-rule:evenodd;fill:url(#SVGID_8_);enable-background:new    ;}
</style>
<g>
	
		<radialGradient id="SVGID_1_" cx="-278.9262" cy="-503.5447" r="54.056" gradientTransform="matrix(1.6378 0 0 -0.506 398.3536 2.8819)" gradientUnits="userSpaceOnUse">
		<stop  offset="0" style="stop-color:#000409"/>
		<stop  offset="1" style="stop-color:#000409;stop-opacity:0"/>
	</radialGradient>
	<path class="st0" d="M177.1,103.7c0,15.1-39.6,27.4-88.5,27.4C39.6,131,0,118.8,0,103.7s39.6-27.4,88.5-27.4
		C137.4,76.3,177.1,88.6,177.1,103.7z"/>
	
		<radialGradient id="SVGID_2_" cx="123.8151" cy="-2358.4448" r="54.056" gradientTransform="matrix(0.9759 -1.064100e-02 1.602600e-02 -0.1729 -353.1894 -328.4586)" gradientUnits="userSpaceOnUse">
		<stop  offset="0" style="stop-color:#000409"/>
		<stop  offset="1" style="stop-color:#000409;stop-opacity:0"/>
	</radialGradient>
	<path class="st1" d="M163.6,124.3c-0.5,5.2-24.5,9.6-53.6,9.9c-29.1,0.3-52.4-3.6-51.9-8.8c0.5-5.2,24.5-9.6,53.6-9.9
		C140.8,115.2,164.1,119.2,163.6,124.3z"/>
</g>
<g>
	<path class="st2" d="M13.6,31.9l6.6,64.8c0.1,1.4,0.7,4.2,2.5,4.8l83.8,30.7c2.9,1.4,7.8,0.8,10.1-0.3l56.7-31.9
		c2.5-1.1,4.3-3,4.6-5.6l7.3-61.1c0.4-3.8,3.9-2.3,4.3-5.6l0.9-8c0.2-1.1-0.9-2.2-2.4-2.7L80.1,2.6c-2.2-0.6-5-0.6-7.1,0L11.4,16.2
		c-1.6,0.5-2.7,2-2.5,3.1v7.6C9.3,29.5,12.5,27.9,13.6,31.9L13.6,31.9z"/>
	
		<linearGradient id="SVGID_3_" gradientUnits="userSpaceOnUse" x1="-856.3786" y1="592.3583" x2="-855.8131" y2="594.1129" gradientTransform="matrix(160.91 0 0 -32.559 137862.5781 19328.0547)">
		<stop  offset="0" style="stop-color:#000409"/>
		<stop  offset="1" style="stop-color:#000409;stop-opacity:0"/>
	</linearGradient>
	
		<linearGradient id="SVGID_4_" gradientUnits="userSpaceOnUse" x1="-856.108" y1="593.2586" x2="-856.1862" y2="592.8801" gradientTransform="matrix(160.91 0 0 -32.559 137862.5781 19328.0547)">
		<stop  offset="0" style="stop-color:#FFFFFF"/>
		<stop  offset="1" style="stop-color:#FFFFFF;stop-opacity:0"/>
	</linearGradient>
	<path class="st3" d="M20.2,16.7l93.6,20l67.3-18.2L77.1,4.2L20.2,16.7L20.2,16.7z"/>
	
		<linearGradient id="SVGID_5_" gradientUnits="userSpaceOnUse" x1="-834.3406" y1="597.8997" x2="-834.3057" y2="597.3138" gradientTransform="matrix(31.6716 0 0 -45.7979 26462.3984 27422.0664)">
		<stop  offset="0" style="stop-color:#DDDDDD"/>
		<stop  offset="1" style="stop-color:#FFFFFF"/>
	</linearGradient>
	<path class="st4" d="M31.6,45.1c-0.3,0-0.6,0.2-0.9,0.4l-3.1,6.1l7.1,8.1l3.1-6.5C36.3,49.3,33.7,44.8,31.6,45.1L31.6,45.1z
		 M33.5,45.3c1.9,1.5,3.2,3.8,4.3,6.6l3.1,7.7l-1.9,1l7.2,2.9l3.2-7l-2.2,0.7l-1.8-4.5c-0.6-1.7-2.1-3.6-3.3-4L33.5,45.3L33.5,45.3z
		 M22.7,54.7l2.2,3l-1.7,4.4c-0.8,2,1,4.9,2.1,6.2c1.1,1.2,2.8,2,4.3,2.5l2.4-5.1l2.2,2.3l-4.2-10.6L22.7,54.7L22.7,54.7z
		 M50.7,65.5l-6.3,2.9l3.8,9.5c3.2,1.5,7.1,1.5,6.1-3.2L50.7,65.5L50.7,65.5z M23.8,66.7l5.2,13c1,1.9,2.7,3,4.5,3.6l4.7,1.9
		l-0.6-10.7l-9-3.6C27.1,70.4,25.3,69.3,23.8,66.7L23.8,66.7z M43.2,73.6l-3,7.3l4.1,10.1l-0.1-3.5l3.2,1.3c1.2,0.6,2.7,0.1,3.1-1.2
		l3.5-8.9c-1.2,1.3-3,1.1-5,0.3l-5.4-2.1L43.2,73.6L43.2,73.6z"/>
</g>
<path class="st5" d="M68.6,67.3l0.3-2.9c0-0.5-0.3-1-0.5-1.1c-0.2-0.2-0.4,0-0.4,0.6l0.3,3.3L68.6,67.3 M70.5,68l0.3-2.9
	c0-0.5-0.3-1-0.5-1.1c-0.2-0.2-0.4,0-0.4,0.6l0.3,3.3L70.5,68 M76,69.8l2,8.7l0.2,0.1l1.4-10c0-0.2,0.2-0.7,0.6-0.5l-0.1-0.3
	l-1.9-0.7l0.1,0.3c0.2,0.1,1,0.3,0.9,1.2l-1,6.9l-1.8-7.7c-0.3-1.3,0.3-1,0.6-0.9L77,66.6l-2.5-0.9l0.1,0.3c0.2,0.1,0.7,0.3,0.9,1.2
	l0.3,1.4L75,74.4l-1.8-7.7c-0.3-1.3,0.3-1,0.6-0.9l-0.1-0.3l-2.5-0.9l0.1,0.3c0.2,0.1,0.6,0.3,0.9,1.2l2.7,11.3l0.2,0.1L76,69.8
	 M85.2,79.6c-0.1,0.2-0.4,0.3-0.6,0.4c-0.2,0.1-0.7-0.1-1.1-0.7c-0.4-0.5-0.7-1.5-0.7-2.5c0.5,0,1.1,0,1.7-0.3
	c0.4-0.2,0.7-0.7,0.8-1.6c0-1-0.6-1.9-1.2-2.1c-1.2-0.4-2.4,1.4-2.1,4.1c0.1,1.4,0.7,2.6,1.2,3.1c0.7,0.7,1.1,0.6,1.3,0.6
	c0.6,0,1.1-1,1.2-1.1c0.1-0.1-0.1-0.4-0.1-0.3L85.2,79.6 M82.8,76.4c0-1,0-1.6,0.3-2.5c0.1-0.4,0.4-0.6,0.6-0.7
	c0.3-0.1,0.6,0.2,0.7,1C84.5,75.1,84.3,76.5,82.8,76.4 M64.3,84.6l0.7,0.4l2.4,6.4l1.6,0.6l-0.1-0.3c-0.2-0.1-0.7-0.4-0.8-0.9
	l-2.1-5.6c0.8,0,1.6-0.2,1.6-1.6c0-2-1.1-3.8-2.7-4.3l-2.6-0.9l0.1,0.3c0.3,0.1,0.8,0.4,0.8,1.3l0.2,8.6c0,1.1-0.3,1-0.6,0.9
	l0.1,0.3l2.5,0.9l-0.1-0.3c-0.3-0.1-0.8-0.4-0.8-1.3L64.3,84.6 M64.1,80.1c0-0.3,0-0.3,0.2-0.4c0.4,0.1,1,0.2,1.4,0.8
	c0.4,0.7,0.6,1.4,0.7,2.4c0.1,1.9-0.7,1.9-2.1,1.2L64.1,80.1 M72.8,92.1c-0.1,0.2-0.4,0.3-0.6,0.4c-0.2,0.1-0.7-0.1-1.1-0.7
	c-0.4-0.5-0.7-1.5-0.7-2.5c0.5,0,1.1,0,1.7-0.3c0.4-0.2,0.7-0.7,0.8-1.6c0-1-0.6-1.9-1.2-2.1c-1.2-0.4-2.4,1.4-2.1,4.1
	c0.1,1.4,0.7,2.6,1.2,3.1c0.7,0.7,1.1,0.6,1.3,0.6c0.6,0,1.1-1,1.2-1.1c0.1-0.1-0.1-0.4-0.1-0.3L72.8,92.1 M70.4,88.9
	c0-1,0-1.6,0.3-2.5c0.1-0.4,0.4-0.6,0.6-0.7c0.3-0.1,0.6,0.2,0.7,1C72.2,87.7,71.9,89,70.4,88.9 M77.4,93.9c-0.2,0.4-1.1,1-1.8-0.7
	c-0.2-0.5-0.7-1.5-0.7-3c0-1.7,0.2-2.6,0.7-2.9c0.3-0.2,0.6-0.1,0.8,0c0.1,0.1,0.3,0.3,0.3,0.6c0,0.2,0,0.7,0.1,1.1
	c0.2,0.3,0.3,0.5,0.5,0.5c0.2,0,0.3-0.3,0.3-0.5c0-0.4-0.3-1-0.5-1.4c-0.3-0.4-0.4-0.4-0.7-0.6c-1.4-0.6-2.4,0.6-2.2,3.5
	c0.1,2,0.8,3.6,2.1,4.2c0.2,0.1,0.5,0.2,1-0.1c0.3-0.2,0.6-0.7,0.6-1c0-0.2-0.1-0.4-0.2-0.2L77.4,93.9 M80.1,98.3
	c-0.3-0.3-0.6-0.5-0.7-0.1c0,0.2,0,0.5,0.2,0.9c0.2,0.3,0.6,0.5,0.8,0.4c0.3-0.2,0.6-0.8,0.7-1c0.5-1,0.8-2.9,1.2-5.5
	c0.1-0.5,0.1-1.8,0.1-2.2c-0.1-0.5-0.2-1.5-0.7-1.9c-0.4-0.3-0.5,0-0.5,0.3c0,0.3,0.4,0.8,0.7,1.2c0.2,0.3,0.2,0.6,0.2,0.8
	c0.1,1.4-0.3,3.4-0.5,3.7c-0.6-2.3-1.2-4.1-2.1-6.5c-0.1-0.3-0.1-0.3-0.4-0.4l-1.3-0.1l0.1,0.3c0.3,0,0.7-0.2,1.3,1.4
	c0.6,1.5,1.5,4.1,2.1,6.9c-0.2,0.9-0.4,1.6-0.8,2.1L80.1,98.3 M86.9,97.3c-0.2,0.4-1.1,1-1.8-0.7c-0.2-0.5-0.7-1.5-0.7-3
	c0-1.7,0.2-2.6,0.7-2.9c0.3-0.2,0.6-0.1,0.8,0c0.1,0.1,0.3,0.3,0.3,0.6c0,0.2,0,0.7,0.1,1.1c0.2,0.3,0.3,0.5,0.5,0.5
	c0.2,0,0.3-0.3,0.3-0.5c0-0.4-0.3-1-0.5-1.4c-0.3-0.4-0.4-0.4-0.7-0.6c-1.4-0.6-2.4,0.6-2.2,3.5c0.1,2,0.8,3.6,2.1,4.2
	c0.2,0.1,0.5,0.2,1-0.1c0.3-0.2,0.6-0.7,0.6-1c0-0.2-0.1-0.4-0.2-0.2L86.9,97.3 M89.3,88.4c0-0.3,0-0.6-0.1-0.9l-1.5-0.1l0.1,0.3
	c0.6,0.2,0.7,0.2,0.7,1.1l0.3,8.8c0,1.4,0.6,1.9,1,1.8c0.5-0.1,0.6-0.8,0.8-1.3c0.1-0.3,0-0.6-0.1-0.4c-0.1,0.2-0.2,0.9-0.4,1
	c-0.4,0.1-0.4-0.8-0.4-1.3L89.3,88.4 M94.7,100c-0.1,0.2-0.4,0.3-0.6,0.4c-0.2,0.1-0.7-0.1-1.1-0.7c-0.4-0.5-0.7-1.5-0.7-2.5
	c0.5,0,1.1,0,1.7-0.3c0.4-0.2,0.7-0.7,0.8-1.6c0-1-0.6-1.9-1.2-2.1c-1.2-0.4-2.4,1.4-2.1,4.1c0.1,1.4,0.7,2.6,1.2,3.1
	c0.7,0.7,1.1,0.6,1.3,0.6c0.6,0,1.1-1,1.2-1.1c0.1-0.1-0.1-0.4-0.1-0.3L94.7,100 M92.3,96.8c0-1,0-1.6,0.3-2.5
	c0.1-0.4,0.4-0.6,0.6-0.7c0.3-0.1,0.6,0.2,0.7,1C94.1,95.5,93.8,96.9,92.3,96.8 M97.1,99c0.1-2.3,0.2-3.2,0.3-5.1
	c0.1-1.8,0-2.5-0.2-2.9c-0.2-0.4-0.3-0.6-0.5-0.6c-0.2,0-0.3,0.3-0.3,0.4c0,0.3,0,1.3,0.1,2.3l0.4,5.6L97.1,99 M96.6,101.2
	c0.1,0.5,0.4,1,0.7,1.1c0.3,0.1,0.5-0.2,0.4-0.7c-0.1-0.5-0.4-1-0.7-1.1C96.7,100.4,96.5,100.7,96.6,101.2 M99.8,95.5l0.3-2.9
	c0-0.5-0.3-1-0.5-1.1c-0.2-0.2-0.4,0-0.4,0.6l0.3,3.3L99.8,95.5 M101.7,96.2l0.3-2.9c0-0.5-0.3-1-0.5-1.1c-0.2-0.2-0.4,0-0.4,0.6
	l0.3,3.3L101.7,96.2"/>
<linearGradient id="SVGID_6_" gradientUnits="userSpaceOnUse" x1="-705.1036" y1="601.1569" x2="-704.5347" y2="601.1569" gradientTransform="matrix(5.5047 0 0 -74.679 3994.0115 44987.8633)">
	<stop  offset="0" style="stop-color:#FFFFFF"/>
	<stop  offset="1" style="stop-color:#FFFFFF;stop-opacity:0"/>
</linearGradient>
<path class="st6" d="M112.6,53.9h0.5c1.5,0,2.6,0.7,2.6,1.5v77.3c0,0.9-1.2,1.5-2.6,1.5h-0.5c-1.5,0-2.6-0.7-2.6-1.5V55.4
	C110,54.6,111.2,53.9,112.6,53.9z"/>
<g>
	
		<linearGradient id="SVGID_7_" gradientUnits="userSpaceOnUse" x1="-850.4353" y1="597.077" x2="-850.2286" y2="596.7389" gradientTransform="matrix(76.919 0 0 -44.2159 65550.9609 26442.6172)">
		<stop  offset="0" style="stop-color:#000409"/>
		<stop  offset="1" style="stop-color:#000409;stop-opacity:0"/>
	</linearGradient>
	<path class="st7" d="M185.7,31.3l-65.6,22c-3.2,1-7.1,1.1-9.8-0.1l0.3,22.3c1.6-0.3,3.6-0.1,6.4-0.8s65.3-23,65.3-23L185.7,31.3
		L185.7,31.3z"/>
	<path class="st8" d="M13,17.6l7.1-1.4l94,21.2L182,18.2l5.9,0.4l-73.8,22.4L13,17.6L13,17.6z"/>
</g>
<g>
	<path class="st9" d="M12.4,18.2l98.3,24.1c1.3,0.3,2.3,1.5,2.3,2.6v6.3c0,1.1-1,1.8-2.3,1.5L12.4,28.7c-1.3-0.3-2.3-1.5-2.3-2.6
		v-6.3C10.1,18.6,11.1,17.9,12.4,18.2z"/>
	
		<linearGradient id="SVGID_8_" gradientUnits="userSpaceOnUse" x1="-845.9604" y1="586.6926" x2="-844.3578" y2="589.0094" gradientTransform="matrix(54.236 0 0 -23.551 45912.1328 13851.7783)">
		<stop  offset="0" style="stop-color:#000409"/>
		<stop  offset="1" style="stop-color:#000409;stop-opacity:0"/>
	</linearGradient>
	<path class="st10" d="M76.9,4.8l-54.2,12l54.2,11.6V4.8L76.9,4.8z"/>
</g>
</svg>
