<svg id="Calque_1" data-name="Calque 1" xmlns="http://www.w3.org/2000/svg" viewBox="0 0 972.6 1030.27"><defs><style>.cls-1{fill:#e0e5e6;}.cls-2{fill:#d8d8d8;}.cls-3{fill:#94c3c7;}.cls-4{fill:#81b4b9;}.cls-5{fill:#5c9096;}.cls-6{fill:#a4d6d9;}.cls-7{fill:#a8d9e0;}.cls-8{fill:#9ed5dd;}.cls-9{fill:#84ccd4;}.cls-10{fill:#69a1a7;}.cls-11{fill:#81b4b4;}.cls-12{fill:#8aced6;}.cls-13{fill:#98ced1;}.cls-14{fill:#8dc4c7;}.cls-15{fill:#fcfefe;}.cls-16{fill:#96ccce;}.cls-17{fill:#8bc2c5;}.cls-18{fill:#fad25e;}.cls-19{fill:#fdebb5;}.cls-20{fill:#bccd9a;}.cls-21{fill:#abc08d;}.cls-22{fill:#b2c492;}.cls-23{fill:#f8c942;}.cls-24{fill:#f5b806;}.cls-25{fill:#fad873;}.cls-26{fill:#add9e0;}.cls-27{fill:#d6edf3;}.cls-28{fill:#c7e0e5;}.cls-29{fill:#b9e0e8;}.cls-30{fill:#ebf6f8;}.cls-31{fill:#c1e3e8;}.cls-32{fill:#d7edf2;}.cls-33{fill:#cee7eb;}.cls-34{fill:#c6e6ec;}.cls-35{fill:#527583;}.cls-36{fill:#486d7b;}.cls-37{fill:#89acb7;}.cls-38{fill:#a2c856;}.cls-39{fill:#83b827;}.cls-40{fill:#466372;}.cls-41{fill:#446675;}.cls-42{fill:#99b6bf;}.cls-43{fill:#a4d3d9;}.cls-44{fill:#97c7cd;}.cls-45{fill:#679ea3;}.cls-46{fill:#8bbcc3;}.cls-47{fill:#639b9f;}.cls-48{fill:#365666;}.cls-49{fill:#8dbc2f;}.cls-50{fill:#a5c83a;}</style></defs><path class="cls-1" d="M1457,917.57s1.37-.79,2.16,1.58-.38,10.31-1.24,9.45-4.86,15.56-.92-11Z" transform="translate(-486.81 -23.75)"/><path class="cls-2" d="M742,1054c-32.56,0-62.43-13.72-81.24-37.21-23.67-29.56-26.2-62.18-26.2-70.35a108.13,108.13,0,0,1,2.15-21.67l.12-.68a103.42,103.42,0,0,1,11.19-30A107.14,107.14,0,0,0,662.63,902l-6.13,3.4a87.07,87.07,0,0,1-12.25,5.9,106.71,106.71,0,0,0,81.23,37.21,111.19,111.19,0,0,0,33.82-5.33c1.36-.68,2.71-1,3.74-1.59l2.41-1.38,55.06,33.43L824.8,965l15.18-2-55.52-33.7,9.33-5.37.45-.11,143.25-83.63,61.33,37.23,4.29-8.64,15.18-2-61.91-37.57,197.41-115.25c3.69-1.88,33.2-19.37,47.42-53.67.14.16.27.32.4.49a103.59,103.59,0,0,1,8.29,11.69A103,103,0,0,1,1225.32,727c0,60-50.14,89.87-55,92.36l-359.55,209.9-.45.11-30.76,17.7c-1,.56-2.37.91-3.74,1.58A110.78,110.78,0,0,1,742,1054" transform="translate(-486.81 -23.75)"/><path class="cls-3" d="M801.74,497.61c0,10.67-6.92,21.33-21,29.5-28.13,16.34-73.86,16.22-102.22-.11-18.72-10.89-25.19-26.1-19.18-39.94L680.23,52.17h98.48l19.18,370.1,3.74,73,.11,2.39" transform="translate(-486.81 -23.75)"/><path class="cls-4" d="M754.92,440.46c-24.65,0-59.83-.68-59.83-.68L700.31,75l65.47-22.8h12.93l19.18,370.1c-7.15,7-17.7,16.34-19.52,17.47-1,.54-10.85.72-23.45.72" transform="translate(-486.81 -23.75)"/><path class="cls-5" d="M729.79,74.94c-12.24,0-23.67-2.72-32.2-7.63C690.06,63,685.9,57.52,685.9,52S690,41.2,697.38,36.93c8.38-4.85,19.67-7.51,31.79-7.51s23.66,2.71,32.18,7.63c7.54,4.36,11.7,9.79,11.7,15.31S769,63.16,761.57,67.43c-8.38,4.84-19.66,7.51-31.78,7.51Z" transform="translate(-486.81 -23.75)"/><path class="cls-6" d="M729.17,23.75c-12.56,0-25.08,2.75-34.62,8.26-19.18,11.07-19.08,29.07.21,40.21,9.69,5.59,22.37,8.39,35,8.39s25.07-2.75,34.62-8.26c19.17-11.07,19.07-29.07-.22-40.21-9.69-5.59-22.37-8.39-35-8.39Zm0,11.34c11.09,0,21.78,2.5,29.35,6.87,5.54,3.21,8.86,7.09,8.86,10.4s-3.24,7-8.65,10.16c-7.42,4.29-18,6.74-29,6.74S708,66.76,700.43,62.4c-5.54-3.21-8.86-7.09-8.86-10.4s3.24-7,8.65-10.16c7.42-4.29,18-6.74,28.95-6.75Z" transform="translate(-486.81 -23.75)"/><path class="cls-3" d="M644.28,497.61c0,10.67-6.92,21.33-21,29.5-28.14,16.34-73.86,16.22-102.23-.11-18.72-10.89-25.18-26.1-19.18-39.94L522.77,52.17h98.48l19.17,370.1,3.75,73,.11,2.39" transform="translate(-486.81 -23.75)"/><path class="cls-4" d="M597.45,440.46c-24.65,0-59.82-.68-59.82-.68L542.85,75l65.46-22.8h12.94l19.17,370.1c-7.14,7-17.7,16.34-19.51,17.47-1,.54-10.85.72-23.46.72" transform="translate(-486.81 -23.75)"/><path class="cls-5" d="M572.33,74.94c-12.23,0-23.67-2.72-32.2-7.63C532.59,63,528.44,57.52,528.44,52s4.07-10.8,11.48-15.07c8.38-4.85,19.67-7.51,31.79-7.51s23.65,2.71,32.18,7.63c7.54,4.36,11.69,9.79,11.69,15.31s-4.08,10.8-11.48,15.07c-8.37,4.84-19.66,7.51-31.77,7.51Z" transform="translate(-486.81 -23.75)"/><path class="cls-6" d="M571.7,23.75c-12.55,0-25.07,2.75-34.62,8.26-19.17,11.07-19.07,29.07.22,40.21,9.69,5.59,22.37,8.39,35,8.39s25.07-2.75,34.62-8.26c19.17-11.07,19.08-29.07-.21-40.21-9.69-5.59-22.37-8.39-35-8.39Zm0,11.34c11.09,0,21.79,2.5,29.35,6.87,5.55,3.21,8.86,7.09,8.86,10.4s-3.23,7-8.64,10.16c-7.43,4.29-18,6.74-28.95,6.74S550.53,66.76,543,62.4c-5.55-3.21-8.86-7.09-8.86-10.4s3.23-7,8.64-10.16c7.43-4.29,18-6.74,29-6.75Z" transform="translate(-486.81 -23.75)"/><polyline class="cls-6" points="177.33 784.61 0.97 682.79 0.97 387.43 177.33 489.25 177.33 784.61"/><polygon class="cls-7" points="23.65 425.41 20.44 423.56 20.44 469.22 23.65 467.37 23.65 425.41 23.65 425.41"/><polygon class="cls-8" points="20.44 469.22 53.31 488.2 53.31 484.5 23.65 467.37 20.44 469.22 20.44 469.22"/><polygon class="cls-9" points="23.65 425.41 23.65 467.37 53.31 484.5 53.31 442.54 23.65 425.41 23.65 425.41"/><polygon class="cls-7" points="76.52 455.94 73.32 454.09 73.32 499.75 76.52 497.9 76.52 455.94 76.52 455.94"/><polygon class="cls-8" points="73.32 499.75 106.19 518.73 106.19 515.02 76.52 497.9 73.32 499.75 73.32 499.75"/><polygon class="cls-9" points="76.52 455.94 76.52 497.9 106.19 515.02 106.19 473.07 76.52 455.94 76.52 455.94"/><polygon class="cls-7" points="128.19 485.77 124.99 483.92 124.99 529.58 128.19 527.73 128.19 485.77 128.19 485.77"/><polygon class="cls-8" points="124.99 529.58 157.85 548.56 157.85 544.86 128.19 527.73 124.99 529.58 124.99 529.58"/><polygon class="cls-9" points="128.19 485.77 128.19 527.73 157.85 544.86 157.85 502.9 128.19 485.77 128.19 485.77"/><polygon class="cls-10" points="177.33 273.61 177.33 304.71 334.22 395.43 334.22 363.99 177.33 273.61 177.33 273.61"/><polygon class="cls-11" points="177.33 273.61 177.33 304.71 20.44 395.43 20.44 363.99 177.33 273.61 177.33 273.61"/><polyline class="cls-3" points="177.33 784.61 353.7 682.79 353.7 387.43 177.33 489.25 177.33 784.61"/><polygon class="cls-7" points="331.01 425.41 334.22 423.56 334.22 469.22 331.01 467.37 331.01 425.41 331.01 425.41"/><polygon class="cls-8" points="334.22 469.22 301.35 488.2 301.35 484.5 331.01 467.37 334.22 469.22 334.22 469.22"/><polygon class="cls-12" points="331.01 425.41 331.01 467.37 301.35 484.5 301.35 442.54 331.01 425.41 331.01 425.41"/><polygon class="cls-7" points="278.14 455.94 281.35 454.09 281.35 499.75 278.14 497.9 278.14 455.94 278.14 455.94"/><polygon class="cls-8" points="281.35 499.75 248.48 518.73 248.48 515.02 278.14 497.9 281.35 499.75 281.35 499.75"/><polygon class="cls-12" points="278.14 455.94 278.14 497.9 248.48 515.02 248.48 473.07 278.14 455.94 278.14 455.94"/><polygon class="cls-7" points="226.47 485.77 229.68 483.92 229.68 529.58 226.47 527.73 226.47 485.77 226.47 485.77"/><polygon class="cls-8" points="229.68 529.58 196.81 548.56 196.81 544.86 226.47 527.73 229.68 529.58 229.68 529.58"/><polygon class="cls-12" points="226.47 485.77 226.47 527.73 196.81 544.86 196.81 502.9 226.47 485.77 226.47 485.77"/><polygon class="cls-7" points="177.33 304.8 30.59 389.52 177.33 474.24 324.07 389.52 177.33 304.8 177.33 304.8"/><path class="cls-6" d="M517.41,382.08l146.74-84.72,146.74,84.72L664.15,466.8,517.41,382.08ZM664.14,280.26,487.78,382.08,664.14,483.91,840.51,382.08,664.14,280.26Z" transform="translate(-486.81 -23.75)"/><polygon class="cls-10" points="177.33 489.25 177.33 460.16 0 358 0 387.43 177.33 489.25 177.33 489.25"/><polygon class="cls-11" points="177.33 489.25 177.33 460.16 354.67 358 354.67 387.43 177.33 489.25 177.33 489.25"/><path class="cls-6" d="M1006.75,219.61V626.36H886V219.61a58.92,58.92,0,0,1,9.42-32.22,59.88,59.88,0,0,1,50.94-28.14,61,61,0,0,1,32.45,9.65,59.68,59.68,0,0,1,27.91,50.71" transform="translate(-486.81 -23.75)"/><path class="cls-13" d="M896.58,504.74h0V219.39a53.71,53.71,0,0,1,1.7-19.52l.34-1a24.33,24.33,0,0,1,5-9.42c6.33-7.18,18.17-14.09,25.1-17.78l.09.2a6.39,6.39,0,0,0-.33,1.71c-11.71,4.77-25.58,12.85-29.85,25.29l-.34,1c-.68,3.18-1.24,9.87-1.7,19.52V504.74" transform="translate(-486.81 -23.75)"/><path class="cls-13" d="M928.65,600.37V504.74h-3.33c-1-115.95-2-274.88-.65-288.3,1.68-17.62,21.21-28.89,28-32.28-2.52,7-6.24,18.14-6.24,23.77V590.26l-17.74,10.11m78.1-262c-1.12-78.14-3.61-143.33-8.75-150a36.36,36.36,0,0,0-29.24-14.1,31.11,31.11,0,0,0-4.53.3c0-.16,0-.32,0-.48a6.57,6.57,0,0,0-1.07-3.51c-.09-1.19-.25-2.36-.45-3.52a74.65,74.65,0,0,1,16.11,1.82,59.68,59.68,0,0,1,27.91,50.71V338.36" transform="translate(-486.81 -23.75)"/><path class="cls-14" d="M925.32,504.74H896.58V219.39c.46-9.65,1-16.34,1.7-19.52l.34-1c4.27-12.44,18.14-20.52,29.85-25.29a2.44,2.44,0,0,0,0,.27c0,2.67,1.79,5.34,5.33,7.43a23.34,23.34,0,0,0,7.79,2.62,30.85,30.85,0,0,0,5,.4,29.23,29.23,0,0,0,6.24-.65c-.07.18-.13.35-.19.53-6.75,3.39-26.28,14.66-28,32.28-1.36,13.42-.32,172.35.65,288.3" transform="translate(-486.81 -23.75)"/><path class="cls-15" d="M1006.75,555.86V338.36c1,73.6.88,158.67.56,217.17l-.56.33" transform="translate(-486.81 -23.75)"/><path class="cls-16" d="M946.39,590.26V207.93c0-5.63,3.72-16.82,6.24-23.77,1.19-.6,2-.95,2.2-1l1-.34a15.33,15.33,0,0,0,3.25-1.51c3.22-1.83,4.93-4.22,5.13-6.67a31.11,31.11,0,0,1,4.53-.3A36.36,36.36,0,0,1,998,188.39c5.14,6.64,7.63,71.83,8.75,150v217.5l-60.36,34.4" transform="translate(-486.81 -23.75)"/><path class="cls-17" d="M952.63,184.16c.06-.18.12-.35.19-.53.68-.15,1.36-.32,2-.52-.22.1-1,.45-2.2,1" transform="translate(-486.81 -23.75)"/><path class="cls-18" d="M959.1,181.26c-6.93,4.09-18.27,4-25.31,0-4.42-2.61-6.12-6.12-5-9.41a3.54,3.54,0,0,0-1.59-1.59,4,4,0,0,0-4.31.11L887.84,192a51.42,51.42,0,0,0-24.73,43.57l-5.68,455-14.4-.11-19.63-.23,5.67-455.08A85.88,85.88,0,0,1,869.92,163L905,141.33a38.24,38.24,0,0,1,37.89-1.25l.91.45a37.85,37.85,0,0,1,19.4,30.07c2.27,3.63.91,7.83-4.08,10.66" transform="translate(-486.81 -23.75)"/><path class="cls-19" d="M858.06,640.62l5.05-405A51.42,51.42,0,0,1,887.84,192l7.65-4.72,0,0L887.84,192a51.42,51.42,0,0,0-24.73,43.57l-5.05,405" transform="translate(-486.81 -23.75)"/><path class="cls-20" d="M895.46,187.36l0,0,7.7-4.76c-1,.63-1.51,1-1.51,1l-6.22,3.83" transform="translate(-486.81 -23.75)"/><path class="cls-21" d="M941.58,183.88a23.34,23.34,0,0,1-7.79-2.62c-3.54-2.09-5.34-4.76-5.33-7.43,0,2.67,1.79,5.34,5.33,7.43a24,24,0,0,0,7.79,2.62" transform="translate(-486.81 -23.75)"/><path class="cls-22" d="M955.85,182.77a18.6,18.6,0,0,0,3.25-1.51c3.22-1.83,4.93-4.22,5.13-6.67h0c-.2,2.45-1.91,4.84-5.13,6.67a15.33,15.33,0,0,1-3.25,1.51" transform="translate(-486.81 -23.75)"/><path class="cls-23" d="M850,645.19V550.12h-5.25l3.91-310.65a85.88,85.88,0,0,1,40.84-72.16l35.07-21.67a37.24,37.24,0,0,1,18.26-5.56l.91.45a37.85,37.85,0,0,1,19.4,30.07,6.57,6.57,0,0,1,1.07,3.51c0,.16,0,.32,0,.48-.2,2.45-1.91,4.84-5.13,6.67a18.6,18.6,0,0,1-3.25,1.51l-1,.31a29.18,29.18,0,0,1-8.39,1.19,31.12,31.12,0,0,1-4.93-.39,24,24,0,0,1-7.79-2.62c-3.54-2.09-5.34-4.76-5.33-7.43a6.2,6.2,0,0,1,.34-2h0a3.54,3.54,0,0,0-1.59-1.59,4.33,4.33,0,0,0-2.11-.59,3.94,3.94,0,0,0-2.2.7h0l-17.92,11-1.79,1.18-7.7,4.76L887.84,192a51.42,51.42,0,0,0-24.73,43.57l-5.05,405-8,4.57" transform="translate(-486.81 -23.75)"/><path class="cls-24" d="M954.9,183.08c-6.7,2-15.32,1.47-21.11-1.82-4.42-2.61-6.12-6.12-5-9.41a3.54,3.54,0,0,0-1.59-1.59,4,4,0,0,0-4.31.11l-17.92,11c8.73-5.68,32.22-20.77,33.92-20.77,1.48.46,5.22-3.74,10,3.86,2.49,4,4.54,12,6,18.61Z" transform="translate(-486.81 -23.75)"/><polyline class="cls-24" points="161.64 845.41 165.93 836.76 337.99 941.2 333.7 949.85 161.64 845.41"/><polyline class="cls-18" points="181.1 834.73 165.93 836.76 337.99 941.2 353.17 939.17 181.1 834.73"/><polygon class="cls-25" points="353.17 939.17 337.99 941.2 333.52 949.74 348.69 947.71 353.17 939.17 353.17 939.17"/><polyline class="cls-24" points="339.94 749.15 344.24 740.51 516.29 844.95 512 853.59 339.94 749.15"/><polyline class="cls-18" points="359.41 738.48 344.24 740.51 516.29 844.95 531.47 842.91 359.41 738.48"/><polygon class="cls-25" points="531.47 842.91 516.29 844.95 511.83 853.48 527 851.44 531.47 842.91 531.47 842.91"/><path class="cls-26" d="M1208.82,621.49c0,60-50.15,89.85-55,92.35L794.24,923.74l-.45.11L763,941.55c-1,.57-2.38.91-3.74,1.59a111.19,111.19,0,0,1-33.82,5.33,106.71,106.71,0,0,1-81.23-37.21,87.07,87.07,0,0,0,12.25-5.9l6.13-3.4,2.49-1.48L644,863.83l-4.76-8.17-1.37.8-7.26,4.09a48.6,48.6,0,0,1-9.87,4.19A97.1,97.1,0,0,1,618,840.91a108,108,0,0,1,2.15-21.66l.12-.69c7-34.26,29.27-55.7,43.56-66.37a96.47,96.47,0,0,1,12.6-8.05l368.4-210c3-1.94,10-5.9,10.55-5.9A101.26,101.26,0,0,1,1099,516.42c1.59-.11,3.06-.11,4.65-.11a104.17,104.17,0,0,1,81.47,38.8,89.52,89.52,0,0,1,8.16,11.69,92.77,92.77,0,0,1,9.08,18.49,103.87,103.87,0,0,1,6.47,36.2" transform="translate(-486.81 -23.75)"/><path class="cls-27" d="M648,894.14a106.15,106.15,0,0,1-23.39-20.32,87.07,87.07,0,0,0,12.25-5.9l.57-.34h0c-.45,10.55-.34,17.47-.34,17.47l12.26,6.75q-.69,1.16-1.35,2.34" transform="translate(-486.81 -23.75)"/><path class="cls-28" d="M662.63,902A107.14,107.14,0,0,1,648,894.14q.66-1.18,1.35-2.34l15.76,8.68L662.63,902" transform="translate(-486.81 -23.75)"/><path class="cls-29" d="M705.85,911A107.51,107.51,0,0,1,662.63,902h0l2.49-1.48s23.15-46.63,55.37-64.67S1151.18,572.69,1164,570.09c8.17-1.7,17.59-3.41,23.6-3.74h0a99.65,99.65,0,0,1,1.59,17.69c0,60-50.15,89.86-55,92.36L774.61,886.3l-.45.11-30.75,17.7c-1,.57-2.38.91-3.74,1.59A111.19,111.19,0,0,1,705.85,911m-67.62-60.59h0l-18-31.19.12-.69c7-34.26,29.27-55.7,43.56-66.37a96.47,96.47,0,0,1,12.6-8.05l44-25.1v16.05c-37.45,23.46-63.65,41-67.73,46.49-9.19,12.48-13,43.79-14.53,68.86M771.43,703.7V690l27.67-15.77V687q-14.18,8.53-27.67,16.74M850,656.51V645.19l27.66-15.77v10.7q-13.82,8.16-27.66,16.39m78.61-46.32v-9.82l116.22-66.24c3-1.94,10-5.9,10.55-5.9A101.26,101.26,0,0,1,1099,516.42c1.59-.11,3.06-.11,4.65-.11a104.17,104.17,0,0,1,81.47,38.8h0a104.17,104.17,0,0,0-81.47-38.8c-1.59,0-3.06,0-4.65.11-8.17,3.07-17.24,7.49-30.06,13.73-11.38,5.56-70.22,39.1-140.28,80" transform="translate(-486.81 -23.75)"/><path class="cls-30" d="M637.44,867.58c.11-3.3.23-7.15.45-11.12h0l1.37-.8,4.76,8.17-6.58,3.75" transform="translate(-486.81 -23.75)"/><path class="cls-31" d="M644,863.83h0l-4.76-8.17-1.37.8c.12-1.93.23-4,.34-6h0L645.5,863l-1.48.79m549.25-297a6.78,6.78,0,0,0-3.3-.57q-1.07,0-2.37.12h0a90.41,90.41,0,0,0-2.49-11.24,89.52,89.52,0,0,1,8.16,11.69" transform="translate(-486.81 -23.75)"/><path class="cls-32" d="M649.36,891.8l-12.26-6.75s-.11-6.92.34-17.47h0l6.58-3.75,11.1,19.27c-2,2.73-3.93,5.62-5.76,8.7" transform="translate(-486.81 -23.75)"/><path class="cls-33" d="M665.12,900.48l-15.76-8.68c1.83-3.08,3.76-6,5.76-8.7l10,17.38" transform="translate(-486.81 -23.75)"/><path class="cls-34" d="M665.12,900.48h0l-10-17.38L644,863.83l1.48-.79-7.27-12.6c1.48-25.07,5.34-56.38,14.53-68.86,4.08-5.48,30.28-23,67.73-46.49v11.76l-32.62,18.42c-9.43,5.44-9.47,14.09-.11,19.5,4.62,2.67,10.7,4,16.8,4a34.72,34.72,0,0,0,17-4.08L759.38,763a27.07,27.07,0,0,0,4.57-2.16h0a20,20,0,0,0,3.67-2.57l71.66-41.17a25.59,25.59,0,0,0,3.27-1.64h0a21.73,21.73,0,0,0,2.79-1.83l75-43.11c.27-.14.52-.29.78-.44h0c5-2.78,7.5-6.44,7.49-10.22h0V610.19c70.06-40.94,128.9-74.48,140.28-80,12.82-6.24,21.89-10.66,30.06-13.73,1.59-.11,3.06-.11,4.65-.11a104.17,104.17,0,0,1,81.47,38.8h0a90.41,90.41,0,0,1,2.49,11.24h0c-6,.33-15.43,2-23.6,3.74-12.82,2.6-411.4,247.68-443.51,265.72s-55.37,64.67-55.37,64.67M771.43,718.1V703.7Q784.92,695.5,799.1,687v15.52L771.43,718.1M850,673.72V656.51q13.83-8.22,27.66-16.39v18L850,673.72" transform="translate(-486.81 -23.75)"/><path class="cls-35" d="M664.78,899.92l.34.56-8.62,4.88a87.07,87.07,0,0,1-12.25,5.9c-14.3,5.9-30.75,8.74-47.2,8.74-21.45,0-42.89-4.88-59.91-14.86-20.65-11.92-32.56-30-32.56-49.48,0-1.36.12-2.72.22-4.08,1.48-17.93,12.94-34.26,32-45.15l78.63-44.6a79,79,0,0,1,48.44-9.64,124.35,124.35,0,0,0-22.12,21.1,107.14,107.14,0,0,0-21.44,45.27l-57.87,32.68a20.29,20.29,0,0,0-5.56,4.42,20,20,0,0,0,6.13,4.66c14.75,8.62,39.71,10.1,57.75,4.42a48.6,48.6,0,0,0,9.87-4.19l6.24-3.52c3.18-4,8.85-4.66,15.43-.8,5.68,3.18,10.78,9.08,14.07,15.66a35.31,35.31,0,0,1,4.31,16c0,6-2.27,10.21-5.9,12Z" transform="translate(-486.81 -23.75)"/><polygon class="cls-10" points="611.93 480.36 682.23 520.94 582.14 578.73 511.85 538.14 611.93 480.36 611.93 480.36"/><polygon class="cls-5" points="682.23 520.94 793.52 658.83 693.44 716.61 582.14 578.73 682.23 520.94 682.23 520.94"/><polygon class="cls-36" points="666.54 717.43 846.25 613.67 923.06 658.01 743.35 761.77 666.54 717.43 666.54 717.43"/><path class="cls-37" d="M1333.07,636.65,1152,741.18l78.15,45.11,181.06-104.53-78.15-45.11Zm0,1.55,75.46,43.56-178.37,103-75.47-43.56,178.38-103Z" transform="translate(-486.81 -23.75)"/><polygon class="cls-36" points="743.35 851.97 924.4 747.44 924.4 658.01 743.35 762.54 743.35 851.97 743.35 851.97"/><polygon class="cls-35" points="743.35 851.97 743.35 762.54 665.2 717.43 665.2 806.85 743.35 851.97 743.35 851.97"/><polygon class="cls-38" points="582.14 578.73 505.51 460.32 511.85 457.48 582.14 498.06 582.14 578.73 582.14 578.73"/><polygon class="cls-39" points="575.81 581.57 505.51 540.98 505.51 460.32 575.81 500.91 575.81 581.57 575.81 581.57"/><polygon class="cls-38" points="699.51 698.43 575.81 541.38 582.14 538.4 705.84 695.44 699.51 698.43 699.51 698.43"/><polygon class="cls-39" points="699.51 738.76 575.81 581.72 575.81 541.38 699.51 698.43 699.51 738.76 699.51 738.76"/><polygon class="cls-38" points="699.51 738.76 705.84 735.77 705.84 695.44 699.51 698.43 699.51 738.76 699.51 738.76"/><polygon class="cls-38" points="688.74 519 612.11 400.6 618.45 397.75 688.74 438.34 688.74 519 688.74 519"/><polygon class="cls-39" points="682.41 521.85 612.11 481.26 612.11 400.6 682.41 441.18 682.41 521.85 682.41 521.85"/><polygon class="cls-38" points="806.11 638.71 682.41 481.66 688.74 478.67 812.44 635.72 806.11 638.71 806.11 638.71"/><polygon class="cls-39" points="806.11 679.03 682.41 521.99 682.41 481.66 806.11 638.71 806.11 679.03 806.11 679.03"/><polygon class="cls-11" points="806.11 679.03 812.44 676.05 812.44 635.72 806.11 638.71 806.11 679.03 806.11 679.03"/><polygon class="cls-35" points="811.98 557.83 910.06 614.46 812.59 670.73 811.98 557.83 811.98 557.83"/><polygon class="cls-40" points="812.59 670.73 714.51 614.1 811.98 557.83 812.59 670.73 812.59 670.73"/><polygon class="cls-35" points="714.51 614.1 812.59 670.73 812.47 722.31 754.26 688.71 714.51 614.1 714.51 614.1"/><polygon class="cls-41" points="910.37 614.1 812.29 670.73 812.41 722.31 870.62 688.71 910.37 614.1 910.37 614.1"/><path class="cls-37" d="M1298.79,581.58l-97.46,56.27,98.08,56.63,97.46-56.27-98.08-56.63Zm0,1.55,95.39,55.08-94.77,54.72L1204,637.85l94.78-54.72Z" transform="translate(-486.81 -23.75)"/><polygon class="cls-24" points="356.6 998.57 345.5 1004.99 345.5 802.44 356.6 796.03 356.6 998.57 356.6 998.57"/><polygon class="cls-18" points="334.39 998.57 345.5 1004.99 345.5 802.44 334.39 796.03 334.39 998.57 334.39 998.57"/><polygon class="cls-25" points="334.39 796.03 345.5 802.44 356.6 796.24 345.5 789.84 334.39 796.03 334.39 796.03"/><polygon class="cls-24" points="531.07 897.19 519.97 903.61 519.97 701.06 531.07 694.65 531.07 897.19 531.07 897.19"/><polygon class="cls-18" points="508.87 897.19 519.97 903.61 519.97 701.06 508.87 694.65 508.87 897.19 508.87 897.19"/><polygon class="cls-25" points="508.87 694.65 519.97 701.06 531.07 694.87 519.97 688.46 508.87 694.65 508.87 694.65"/><path class="cls-36" d="M641.75,773.29a107.14,107.14,0,0,0-21.44,45.27l-57.87,32.68a20.29,20.29,0,0,0-5.56,4.42s-27.46-14.86-.22-32.78,80.55-48.57,85.09-49.59Z" transform="translate(-486.81 -23.75)"/><path class="cls-36" d="M664.78,899.92l.34.56-8.62,4.88a87.07,87.07,0,0,1-12.25,5.9c-14.3,5.9-30.75,8.74-47.2,8.74-21.45,0-42.89-4.88-59.91-14.86-20.65-11.92-32.56-30-32.56-49.48,0-1.36.12-2.72.22-4.08,10.56,34.61,62.75,54.8,95.43,46.29,22.8-5.9,51.17-18.83,66.14-26a35.31,35.31,0,0,1,4.31,16c0,6-2.27,10.21-5.9,12Z" transform="translate(-486.81 -23.75)"/><path class="cls-42" d="M631.16,762.23,543.51,877.71l-.36.48-.45-.32a106.11,106.11,0,0,1-17.31-15.74,27.68,27.68,0,0,1-6.13-22.2,41.82,41.82,0,0,1,3.38-11.24,14.65,14.65,0,0,1,3.19-5,44.57,44.57,0,0,1,4.45-3.83c6.22-4.7,12.8-8.82,19.41-12.87,26.54-16,53.91-30.58,81.47-44.72Zm0,0q-20.52,10.89-40.79,22.25c-13.53,7.52-27,15.17-40.19,23.28-6.57,4.08-13.12,8.23-19.24,12.91-6.75,4.16-9.19,12-10.49,19.43a26.41,26.41,0,0,0,6,21.19c5.15,5.59,10.74,11.17,16.93,15.52l-.81.15,88.63-114.73Z" transform="translate(-486.81 -23.75)"/><path class="cls-43" d="M704.56,788.79c-6.1,0-12.18-1.35-16.8-4-9.36-5.41-9.32-14.06.11-19.5l32.62-18.42v3.53c0,3.74,2.5,7.37,7.49,10.32a7.2,7.2,0,0,0,2.15,1h0a37.35,37.35,0,0,0,16.16,3.44,43.35,43.35,0,0,0,4.72-.26h0l1.21-.17a35,35,0,0,0,7.16-1.76l-37.85,21.74a34.72,34.72,0,0,1-17,4.08m63.06-30.55a10.3,10.3,0,0,0,3.82-7.59h0a2.44,2.44,0,0,0,0-.27V718.1l27.67-15.62V705c0,3.74,2.49,7.38,7.49,10.33a7.72,7.72,0,0,0,2.15,1h0a37.36,37.36,0,0,0,16.17,3.44,43.31,43.31,0,0,0,4.71-.26h0l1.5-.21a34.16,34.16,0,0,0,8.16-2.24l-71.66,41.17m77.72-44.64c3.14-2.47,4.71-5.39,4.7-8.38h0v-31.5L877.7,658.1v1.51c0,3.74,2.5,7.37,7.49,10.32a7.25,7.25,0,0,0,2.16,1h0a37.18,37.18,0,0,0,16.16,3.44,43.31,43.31,0,0,0,4.71-.26h0l1.35-.18a32.22,32.22,0,0,0,10.81-3.46l-75,43.11" transform="translate(-486.81 -23.75)"/><path class="cls-10" d="M771.43,595.5V750.38c.12,3.85-2.38,7.6-7.48,10.43-9.08,5.45-23.83,5.79-33.82.91a7.2,7.2,0,0,1-2.15-1c-5-3-7.49-6.58-7.49-10.32V595.5h50.94" transform="translate(-486.81 -23.75)"/><path class="cls-44" d="M746.29,765.16a37.35,37.35,0,0,1-16.16-3.44h0a37.53,37.53,0,0,0,16.15,3.43,41.27,41.27,0,0,0,4.73-.26h0a43.35,43.35,0,0,1-4.72.26" transform="translate(-486.81 -23.75)"/><path class="cls-45" d="M746.28,765.15a37.53,37.53,0,0,1-16.15-3.43h0a7.67,7.67,0,0,1-.68-3.18V603.67l31.66-6.13,10.32-2-10.32,2-10.67,9.65V762.06a7.85,7.85,0,0,0,.57,2.83,41.27,41.27,0,0,1-4.73.26" transform="translate(-486.81 -23.75)"/><path class="cls-46" d="M751,764.9h0c.4,0,.81-.1,1.21-.16l-1.21.17h0" transform="translate(-486.81 -23.75)"/><path class="cls-47" d="M751,764.89a7.85,7.85,0,0,1-.57-2.83V607.19l10.67-9.65,10.32-2V750.38h0a2.44,2.44,0,0,1,0,.27c0,3.76-2.51,7.39-7.49,10.16h0a32.44,32.44,0,0,1-11.73,3.92c-.4.06-.81.12-1.21.16" transform="translate(-486.81 -23.75)"/><path class="cls-48" d="M746.11,609.49c-6.72,0-13-1.51-17.79-4.25s-7.18-6.19-7.19-9.88,2.51-7.14,7.08-9.77,10.92-4.19,17.58-4.19,13,1.51,17.8,4.26,7.18,6.18,7.18,9.88-2.51,7.13-7.07,9.77-10.92,4.18-17.59,4.18Z" transform="translate(-486.81 -23.75)"/><path class="cls-3" d="M745.79,580.73c-6.49,0-13,1.43-17.92,4.28-9.92,5.73-9.87,15,.12,20.81,5,2.9,11.58,4.35,18.12,4.35s13-1.43,17.92-4.29c9.93-5.72,9.88-15-.11-20.81-5-2.89-11.57-4.34-18.13-4.34Zm0,0v1.34c6.61,0,12.81,1.48,17.46,4.17,4.42,2.55,6.85,5.85,6.85,9.3s-2.39,6.68-6.74,9.18c-4.57,2.65-10.7,4.11-17.25,4.11a35.54,35.54,0,0,1-17.45-4.17c-4.42-2.55-6.86-5.85-6.86-9.3s2.4-6.68,6.74-9.19c4.58-2.64,10.71-4.1,17.25-4.1v-1.34Z" transform="translate(-486.81 -23.75)"/><path class="cls-10" d="M850,550.12V705c.11,3.86-2.38,7.6-7.49,10.44-9.08,5.44-23.83,5.79-33.81.91a7.72,7.72,0,0,1-2.15-1c-5-3-7.49-6.59-7.49-10.33V550.12H850" transform="translate(-486.81 -23.75)"/><path class="cls-44" d="M824.91,719.78a37.36,37.36,0,0,1-16.17-3.44h0a37.45,37.45,0,0,0,16.14,3.43,43.68,43.68,0,0,0,4.73-.26h0a43.31,43.31,0,0,1-4.71.26" transform="translate(-486.81 -23.75)"/><path class="cls-45" d="M824.88,719.77a37.45,37.45,0,0,1-16.14-3.43h0a7.7,7.7,0,0,1-.68-3.18V558.29l31.66-6.13,10.32-2-10.32,2-10.67,9.65V716.68a8.15,8.15,0,0,0,.56,2.83,43.68,43.68,0,0,1-4.73.26" transform="translate(-486.81 -23.75)"/><path class="cls-46" d="M829.62,719.52h0l1.51-.2-1.5.21h0" transform="translate(-486.81 -23.75)"/><path class="cls-47" d="M829.61,719.51a8.15,8.15,0,0,1-.56-2.83V561.81l10.67-9.65,10.32-2V705h0v.23c0,3.77-2.48,7.43-7.49,10.21h0a32.32,32.32,0,0,1-11.43,3.88l-1.51.2" transform="translate(-486.81 -23.75)"/><path class="cls-48" d="M824.72,564.11c-6.72,0-13-1.51-17.79-4.26s-7.19-6.17-7.19-9.88,2.51-7.13,7.08-9.76S817.74,536,824.4,536a36.24,36.24,0,0,1,17.8,4.25c4.63,2.68,7.18,6.18,7.18,9.89s-2.51,7.13-7.07,9.76-10.92,4.19-17.59,4.19Z" transform="translate(-486.81 -23.75)"/><path class="cls-3" d="M824.4,535.35c-6.5,0-13,1.42-17.92,4.27-9.92,5.74-9.88,15.06.11,20.82,5,2.89,11.58,4.34,18.13,4.34s13-1.42,17.92-4.28c9.93-5.73,9.88-15-.11-20.81-5-2.89-11.58-4.34-18.13-4.34Zm0,0v1.34c6.61,0,12.81,1.48,17.46,4.16,4.42,2.55,6.85,5.86,6.85,9.31s-2.39,6.67-6.74,9.18c-4.58,2.64-10.7,4.1-17.25,4.1s-12.81-1.48-17.46-4.16c-4.42-2.56-6.85-5.86-6.85-9.31s2.39-6.68,6.74-9.19c4.58-2.64,10.71-4.09,17.25-4.09v-1.34Z" transform="translate(-486.81 -23.75)"/><path class="cls-10" d="M928.65,504.74V659.61c.11,3.85-2.38,7.6-7.49,10.44-9.08,5.44-23.83,5.79-33.81.9a7.25,7.25,0,0,1-2.16-1c-5-2.95-7.49-6.58-7.49-10.32V504.74h50.95" transform="translate(-486.81 -23.75)"/><path class="cls-44" d="M903.51,674.39A37.18,37.18,0,0,1,887.35,671h0a37.32,37.32,0,0,0,16.15,3.43,41.23,41.23,0,0,0,4.72-.26h0a43.31,43.31,0,0,1-4.71.26" transform="translate(-486.81 -23.75)"/><path class="cls-45" d="M903.5,674.38A37.32,37.32,0,0,1,887.35,671h0a7.65,7.65,0,0,1-.68-3.17V512.91l31.65-6.13,10.33-2-10.33,2-10.66,9.64V671.3a7.83,7.83,0,0,0,.56,2.82,41.23,41.23,0,0,1-4.72.26" transform="translate(-486.81 -23.75)"/><path class="cls-46" d="M908.22,674.13h0c.45,0,.9-.1,1.35-.17l-1.35.18h0" transform="translate(-486.81 -23.75)"/><path class="cls-47" d="M908.22,674.12a7.83,7.83,0,0,1-.56-2.82V516.42l10.66-9.64,10.33-2V659.61h0v.22c0,3.78-2.48,7.44-7.49,10.22h0a32.72,32.72,0,0,1-11.59,3.9c-.45.07-.9.12-1.35.17" transform="translate(-486.81 -23.75)"/><path class="cls-48" d="M903.33,518.73c-6.73,0-13-1.51-17.8-4.26s-7.18-6.18-7.19-9.88,2.52-7.14,7.08-9.77,10.92-4.19,17.59-4.19a36.2,36.2,0,0,1,17.79,4.26c4.64,2.67,7.19,6.18,7.19,9.89s-2.51,7.12-7.08,9.75-10.92,4.2-17.58,4.2Z" transform="translate(-486.81 -23.75)"/><path class="cls-3" d="M903,490c-6.5,0-13,1.43-17.92,4.28-9.93,5.73-9.88,15.05.11,20.82,5,2.89,11.58,4.34,18.13,4.34s13-1.43,17.92-4.28c9.92-5.73,9.87-15.05-.12-20.81-5-2.9-11.57-4.35-18.12-4.35Zm0,0v1.34c6.61,0,12.81,1.48,17.45,4.17,4.42,2.55,6.86,5.85,6.86,9.31s-2.4,6.67-6.74,9.18c-4.58,2.64-10.7,4.09-17.25,4.09s-12.81-1.47-17.46-4.16c-4.42-2.55-6.85-5.86-6.85-9.3s2.39-6.68,6.74-9.19c4.58-2.64,10.7-4.1,17.25-4.1V490Z" transform="translate(-486.81 -23.75)"/><path class="cls-49" d="M558.72,613.47,533,580.86l10.16-14.57c6.27-8.41,17.74-2.33,25.44,17.14,1.11,2.82,4.6,11.55,4.6,11.55l-14.46,18.49Z" transform="translate(-486.81 -23.75)"/><path class="cls-49" d="M595.56,650.57,621.83,649l10.33,26.28c6,15.68.63,24.28-14.56,15.65l-9-5.08-13-35.31Z" transform="translate(-486.81 -23.75)"/><path class="cls-50" d="M575.27,618.57l30.35,19,14-20.38-8.87.27-6.94-18.23c-3.91-8.26-4.56-11.07-23.22-21.85l-22.47-13a40.48,40.48,0,0,1,12.23,17.4L584,618.3l-8.73.27Z" transform="translate(-486.81 -23.75)"/><path class="cls-50" d="M590.48,665.89l-16.3,20,14.49,36.54.36-11.29,14.2,8.4c6.49,2.87,8.66,4.68,18-8.47l11.23-15.84c-4.89,3.69-11.13.29-13.63-1.4l-28.4-16.4.06-11.56Z" transform="translate(-486.81 -23.75)"/><path class="cls-49" d="M554.74,640l-14.06-39-28.51-16.16,8.5,11-7.26,9.82c-7,10.49,4,27.61,16.31,34.71l5.51,3.18,11.13-14.41L554.74,640Z" transform="translate(-486.81 -23.75)"/><path class="cls-50" d="M567,663.93l-.3,35.11-25.23-14.57a32.76,32.76,0,0,1-12.88-16.86c-3.61-10.42-15.36-42.27-15.36-42.27s4.28,9.76,13.69,15.45C543.2,650.65,567,663.93,567,663.93Z" transform="translate(-486.81 -23.75)"/></svg>